<svg width="379" height="188" viewBox="0 0 379 188" fill="none" xmlns="http://www.w3.org/2000/svg">
<path d="M189.501 158.721C155.501 158.721 127.82 131.05 127.82 97.0172C127.82 62.9845 155.501 35.333 189.501 35.333C223.502 35.333 251.182 63.0042 251.182 97.0369C251.182 131.07 223.502 158.721 189.501 158.721ZM189.501 37.3025C156.584 37.3025 129.789 64.0875 129.789 97.0369C129.789 129.986 156.584 156.752 189.501 156.752C222.419 156.752 249.213 129.967 249.213 97.0172C249.213 64.0678 222.419 37.3025 189.501 37.3025Z" fill="#E1B168"/>
<path d="M189.5 170.537C184.519 170.537 179.538 170.025 174.695 169.04C169.97 168.075 165.324 166.638 160.894 164.767C156.524 162.915 152.33 160.631 148.412 157.992C144.514 155.372 140.872 152.339 137.545 149.011C134.218 145.682 131.205 142.019 128.567 138.139C128.311 137.745 128.41 137.214 128.804 136.958C129.197 136.701 129.729 136.8 129.985 137.194C132.544 140.995 135.497 144.579 138.746 147.829C141.994 151.079 145.577 154.033 149.377 156.593C153.216 159.193 157.311 161.419 161.564 163.211C165.895 165.042 170.423 166.441 175.03 167.386C184.48 169.316 194.501 169.316 203.97 167.386C208.577 166.441 213.105 165.042 217.437 163.211C221.689 161.419 225.784 159.173 229.623 156.593C233.423 154.013 237.006 151.079 240.255 147.829C243.503 144.579 246.456 141.015 249.015 137.194C249.271 136.8 249.803 136.701 250.197 136.958C250.59 137.214 250.689 137.745 250.433 138.139C247.795 142.039 244.783 145.702 241.455 149.011C238.128 152.339 234.486 155.352 230.588 157.992C226.67 160.65 222.457 162.935 218.106 164.767C213.676 166.638 209.03 168.075 204.305 169.04C199.462 170.025 194.481 170.537 189.5 170.537Z" fill="#E1B168"/>
<path d="M249.724 57.2528C249.449 57.2528 249.193 57.115 249.015 56.8786C246.456 53.0775 243.503 49.4931 240.255 46.2434C237.006 42.9938 233.443 40.0395 229.623 37.4792C225.784 34.8795 221.689 32.654 217.437 30.8618C213.105 29.0301 208.577 27.6318 203.97 26.6865C194.52 24.7564 184.5 24.7564 175.03 26.6865C170.423 27.6318 165.875 29.0301 161.564 30.8618C157.311 32.6737 153.196 34.8992 149.377 37.4792C145.577 40.0395 141.994 42.9938 138.746 46.2434C135.497 49.4931 132.544 53.0775 129.985 56.8786C129.729 57.2725 129.197 57.371 128.804 57.115C128.41 56.8589 128.311 56.3272 128.567 55.9333C131.205 52.0337 134.218 48.3705 137.545 45.0617C140.872 41.7333 144.534 38.72 148.412 36.0809C152.33 33.4221 156.543 31.1572 160.894 29.3059C165.324 27.4349 169.97 25.9971 174.695 25.0124C184.381 23.0232 194.619 23.0232 204.305 25.0124C209.03 25.9774 213.676 27.4152 218.106 29.3059C222.457 31.1572 226.67 33.4221 230.588 36.0809C234.486 38.72 238.148 41.7333 241.455 45.0617C244.783 48.3902 247.795 52.0534 250.433 55.9333C250.689 56.3272 250.59 56.8589 250.197 57.115C250.059 57.1937 249.901 57.2528 249.724 57.2528Z" fill="#E1B168"/>
<path d="M192.473 118.977C188.044 118.977 183.732 118.031 179.657 116.18C176.605 117.598 173.376 118.307 170.049 118.307C157.41 118.307 147.113 108.007 147.113 95.3625C147.113 84.6091 154.654 75.254 165.108 72.9694C170.581 62.8857 181.015 56.6621 192.473 56.6621C208.873 56.6621 222.398 69.3653 223.501 85.6923C228.679 88.9025 231.868 94.5944 231.868 100.68C231.868 110.409 223.954 118.327 214.228 118.327C211.216 118.327 208.243 117.539 205.585 116.042C201.451 117.992 197.021 118.977 192.473 118.977ZM179.657 114.013L180.09 114.21C188.103 117.972 197.297 117.913 205.231 114.033L205.703 113.797L206.156 114.073C208.617 115.55 211.413 116.337 214.248 116.337C222.89 116.337 229.919 109.306 229.919 100.66C229.919 95.0867 226.907 89.8873 222.064 87.0906L221.591 86.8149L221.571 86.2831C220.784 70.7636 208.007 58.5922 192.473 58.5922C181.586 58.5922 171.683 64.5991 166.624 74.2693L166.407 74.6829L165.954 74.7814C156.189 76.7311 149.082 85.3772 149.082 95.3428C149.082 106.904 158.493 116.318 170.049 116.318C173.239 116.318 176.31 115.589 179.224 114.191L179.657 114.013Z" fill="#E1B168"/>
<path d="M212.593 137.372H166.406V116.062L167.509 116.2C168.473 116.318 169.281 116.377 170.048 116.377C173.238 116.377 176.309 115.648 179.223 114.25L179.656 114.014L180.089 114.21C188.102 117.972 197.296 117.913 205.23 114.033L205.703 113.797L206.155 114.073C207.868 115.097 209.738 115.786 211.766 116.121L212.593 116.259V137.372ZM168.375 135.402H210.624V117.913C208.853 117.539 207.159 116.909 205.604 116.022C197.394 119.883 187.944 119.942 179.656 116.2C176.604 117.618 173.376 118.327 170.048 118.327C169.517 118.327 168.966 118.307 168.375 118.248V135.402Z" fill="#E1B168"/>
<path d="M169.91 88.6262C169.359 88.6262 168.926 88.1929 168.926 87.6414C168.926 74.8201 179.36 64.3818 192.177 64.3818C192.728 64.3818 193.161 64.8151 193.161 65.3666C193.161 65.918 192.728 66.3513 192.177 66.3513C180.443 66.3513 170.895 75.9033 170.895 87.6414C170.895 88.1929 170.461 88.6262 169.91 88.6262Z" fill="#E1B168"/>
<path d="M377.515 70.447H244.723C244.171 70.447 243.738 70.0137 243.738 69.4623C243.738 68.9108 244.171 68.4775 244.723 68.4775H377.515C378.066 68.4775 378.499 68.9108 378.499 69.4623C378.499 70.0137 378.066 70.447 377.515 70.447Z" fill="#E1B168"/>
<path d="M377.515 125.573H244.723C244.171 125.573 243.738 125.14 243.738 124.588C243.738 124.037 244.171 123.604 244.723 123.604H377.515C378.066 123.604 378.499 124.037 378.499 124.588C378.499 125.14 378.066 125.573 377.515 125.573Z" fill="#E1B168"/>
<path d="M134.277 70.447H1.48438C0.933125 70.447 0.5 70.0137 0.5 69.4623C0.5 68.9108 0.933125 68.4775 1.48438 68.4775H134.277C134.828 68.4775 135.261 68.9108 135.261 69.4623C135.261 70.0137 134.808 70.447 134.277 70.447Z" fill="#E1B168"/>
<path d="M134.277 125.573H1.48438C0.933125 125.573 0.5 125.14 0.5 124.588C0.5 124.037 0.933125 123.604 1.48438 123.604H134.277C134.828 123.604 135.261 124.037 135.261 124.588C135.261 125.14 134.808 125.573 134.277 125.573Z" fill="#E1B168"/>
<path d="M75.6253 101.882H41.5659C38.8884 101.882 36.7031 99.6955 36.7031 97.017C36.7031 94.3385 38.8884 92.1523 41.5659 92.1523H78.3028C78.8541 92.1523 79.2872 92.5856 79.2872 93.1371C79.2872 93.6885 78.8541 94.1218 78.3028 94.1218H41.5659C39.9713 94.1218 38.6719 95.4217 38.6719 97.017C38.6719 98.6123 39.9713 99.9121 41.5659 99.9121H75.6056C76.1569 99.9121 76.59 100.345 76.59 100.897C76.59 101.448 76.1569 101.882 75.6253 101.882Z" fill="#E1B168"/>
<path d="M19.9106 110.921C9.57469 110.921 1.14844 104.698 1.14844 97.0362C1.14844 89.3749 9.555 83.1514 19.9106 83.1514C30.2466 83.1514 38.6728 89.3749 38.6728 97.0362C38.6728 104.698 30.2663 110.921 19.9106 110.921ZM19.9106 85.1012C10.6575 85.1012 3.11719 90.4581 3.11719 97.0165C3.11719 103.575 10.6575 108.932 19.9106 108.932C29.1638 108.932 36.7041 103.575 36.7041 97.0165C36.7041 90.4581 29.1834 85.1012 19.9106 85.1012Z" fill="#E1B168"/>
<path d="M335.245 101.883H301.205C300.654 101.883 300.221 101.449 300.221 100.898C300.221 100.346 300.654 99.9131 301.205 99.9131H335.245C336.839 99.9131 338.139 98.6132 338.139 97.0179C338.139 95.4227 336.839 94.1228 335.245 94.1228H298.508C297.957 94.1228 297.523 93.6895 297.523 93.1381C297.523 92.5866 297.957 92.1533 298.508 92.1533H335.245C337.922 92.1533 340.108 94.3394 340.108 97.0179C340.108 99.6964 337.922 101.883 335.245 101.883Z" fill="#E1B168"/>
<path d="M353.93 106.234H347.354C342.275 106.234 338.141 102.098 338.141 97.017C338.141 91.9357 342.275 87.7998 347.354 87.7998H353.93V106.234ZM347.354 89.789C343.358 89.789 340.109 93.0386 340.109 97.0367C340.109 101.035 343.358 104.284 347.354 104.284H351.961V89.8087H347.354V89.789Z" fill="#E1B168"/>
<path d="M374.68 89.7888H352.965C352.414 89.7888 351.98 89.3555 351.98 88.8041C351.98 88.2526 352.414 87.8193 352.965 87.8193H374.68C375.231 87.8193 375.665 88.2526 375.665 88.8041C375.665 89.3555 375.212 89.7888 374.68 89.7888Z" fill="#E1B168"/>
<path d="M374.68 98.0027H352.965C352.414 98.0027 351.98 97.5694 351.98 97.0179C351.98 96.4665 352.414 96.0332 352.965 96.0332H374.68C375.231 96.0332 375.665 96.4665 375.665 97.0179C375.665 97.5694 375.212 98.0027 374.68 98.0027Z" fill="#E1B168"/>
<path d="M374.68 106.235H352.965C352.414 106.235 351.98 105.802 351.98 105.25C351.98 104.699 352.414 104.266 352.965 104.266H374.68C375.231 104.266 375.665 104.699 375.665 105.25C375.665 105.802 375.212 106.235 374.68 106.235Z" fill="#E1B168"/>
<path d="M128.961 110.921H111.754C111.203 110.921 110.77 110.488 110.77 109.936C110.77 109.385 111.203 108.952 111.754 108.952H128.961C129.512 108.952 129.945 109.385 129.945 109.936C129.945 110.488 129.512 110.921 128.961 110.921Z" fill="#E1B168"/>
<path d="M128.115 96.2488H95.4531C94.9019 96.2488 94.4688 95.8155 94.4688 95.264C94.4688 94.7126 94.9019 94.2793 95.4531 94.2793H128.115C128.666 94.2793 129.099 94.7126 129.099 95.264C129.099 95.8155 128.666 96.2488 128.115 96.2488Z" fill="#E1B168"/>
<path d="M130.281 81.5759H113.074C112.523 81.5759 112.09 81.1426 112.09 80.5912C112.09 80.0397 112.523 79.6064 113.074 79.6064H130.281C130.832 79.6064 131.265 80.0397 131.265 80.5912C131.265 81.1426 130.832 81.5759 130.281 81.5759Z" fill="#E1B168"/>
<path d="M128.941 103.575H103.387C102.835 103.575 102.402 103.142 102.402 102.59C102.402 102.039 102.835 101.605 103.387 101.605H128.941C129.492 101.605 129.925 102.039 129.925 102.59C129.925 103.142 129.473 103.575 128.941 103.575Z" fill="#E1B168"/>
<path d="M128.804 88.8044H103.25C102.699 88.8044 102.266 88.3712 102.266 87.8197C102.266 87.2682 102.699 86.835 103.25 86.835H128.804C129.356 86.835 129.789 87.2682 129.789 87.8197C129.789 88.3712 129.356 88.8044 128.804 88.8044Z" fill="#E1B168"/>
<path d="M267.226 83.3289H250.02C249.468 83.3289 249.035 82.8956 249.035 82.3441C249.035 81.7927 249.468 81.3594 250.02 81.3594H267.226C267.778 81.3594 268.211 81.7927 268.211 82.3441C268.211 82.8956 267.778 83.3289 267.226 83.3289Z" fill="#E1B168"/>
<path d="M283.544 98.0017H250.883C250.332 98.0017 249.898 97.5684 249.898 97.017C249.898 96.4655 250.332 96.0322 250.883 96.0322H283.544C284.096 96.0322 284.529 96.4655 284.529 97.017C284.529 97.5684 284.096 98.0017 283.544 98.0017Z" fill="#E1B168"/>
<path d="M265.906 112.674H248.699C248.148 112.674 247.715 112.241 247.715 111.689C247.715 111.138 248.148 110.705 248.699 110.705H265.906C266.457 110.705 266.89 111.138 266.89 111.689C266.89 112.241 266.457 112.674 265.906 112.674Z" fill="#E1B168"/>
<path d="M275.613 90.6755H250.059C249.507 90.6755 249.074 90.2423 249.074 89.6908C249.074 89.1393 249.507 88.7061 250.059 88.7061H275.613C276.164 88.7061 276.597 89.1393 276.597 89.6908C276.597 90.2423 276.164 90.6755 275.613 90.6755Z" fill="#E1B168"/>
<path d="M275.75 105.446H250.195C249.644 105.446 249.211 105.013 249.211 104.461C249.211 103.91 249.644 103.477 250.195 103.477H275.75C276.301 103.477 276.734 103.91 276.734 104.461C276.734 105.013 276.281 105.446 275.75 105.446Z" fill="#E1B168"/>
<path d="M124.552 146.136L114.728 148.657L113.173 146.195L117.15 141.488L111.145 142.985L109.59 140.523L116.067 132.724L117.563 135.107L113.39 140.05L119.69 138.475L121.028 140.602L116.815 145.565L123.155 143.95L124.552 146.136Z" fill="#E1B168"/>
<path d="M127.211 159.922L125.675 161.36L120.359 155.727L127.388 149.11L132.585 154.624L131.05 156.062L127.723 152.517L126.502 153.64L129.435 156.751L127.959 158.15L125.025 155.038L123.746 156.239L127.211 159.922Z" fill="#E1B168"/>
<path d="M136.208 157.894L138.354 159.587L133.707 165.456L137.31 168.312L135.971 170.006L130.223 165.456L136.208 157.894Z" fill="#E1B168"/>
<path d="M142.703 173.807C142.21 173.039 141.955 172.212 141.935 171.325C141.915 170.439 142.132 169.573 142.624 168.726C143.096 167.879 143.726 167.249 144.494 166.815C145.262 166.382 146.109 166.165 147.034 166.205C147.94 166.224 148.845 166.5 149.711 166.993C150.479 167.426 151.09 167.958 151.562 168.588C152.035 169.218 152.31 169.888 152.428 170.636L150.125 171.128C149.948 170.163 149.475 169.454 148.707 169.021C148.255 168.765 147.782 168.627 147.329 168.627C146.857 168.627 146.424 168.745 146.03 169.001C145.636 169.257 145.301 169.612 145.026 170.085C144.75 170.557 144.612 171.03 144.612 171.503C144.612 171.975 144.711 172.409 144.967 172.822C145.203 173.216 145.557 173.551 146.01 173.807C146.778 174.24 147.625 174.299 148.55 173.945L149.278 176.17C148.589 176.446 147.841 176.545 147.073 176.466C146.305 176.387 145.538 176.131 144.77 175.698C143.864 175.205 143.175 174.575 142.703 173.807Z" fill="#E1B168"/>
<path d="M155.934 180.346C155.324 179.656 154.911 178.888 154.733 178.002C154.556 177.135 154.635 176.249 154.95 175.343C155.265 174.437 155.777 173.708 156.486 173.157C157.175 172.605 157.982 172.251 158.888 172.113C159.793 171.975 160.738 172.093 161.703 172.428C162.668 172.763 163.455 173.295 164.065 173.964C164.676 174.654 165.089 175.422 165.266 176.308C165.443 177.194 165.365 178.061 165.05 178.967C164.735 179.873 164.223 180.602 163.514 181.153C162.825 181.724 162.018 182.059 161.112 182.197C160.207 182.335 159.262 182.217 158.317 181.882C157.332 181.527 156.545 181.015 155.934 180.346ZM160.423 179.873C160.876 179.794 161.27 179.597 161.644 179.282C161.998 178.967 162.274 178.553 162.451 178.041C162.628 177.529 162.687 177.037 162.608 176.564C162.53 176.091 162.353 175.678 162.057 175.343C161.762 175.008 161.388 174.733 160.935 174.575C160.482 174.417 160.029 174.378 159.577 174.457C159.124 174.536 158.73 174.733 158.356 175.048C157.982 175.363 157.726 175.776 157.549 176.288C157.372 176.8 157.313 177.293 157.391 177.766C157.47 178.238 157.647 178.652 157.943 179.006C158.238 179.361 158.612 179.617 159.065 179.774C159.518 179.932 159.97 179.952 160.423 179.873Z" fill="#E1B168"/>
<path d="M178.201 186.431L178.95 181.37L175.859 185.112L174.658 184.935L172.827 180.582L172.059 185.506L169.559 185.112L171.035 175.58L173.26 175.914L175.76 181.941L179.875 176.939L182.1 177.273L180.662 186.806L178.201 186.431Z" fill="#E1B168"/>
<path d="M195.113 184.817L195.153 186.924L187.416 187.081L187.219 177.431L194.779 177.273L194.818 179.381L189.955 179.479L189.995 181.114L194.287 181.015L194.326 183.064L190.034 183.162L190.073 184.935L195.113 184.817Z" fill="#E1B168"/>
<path d="M209.582 177.037L206.727 177.806L206.156 175.718L214.504 173.473L215.075 175.56L212.22 176.328L214.169 183.556L211.531 184.265L209.582 177.037Z" fill="#E1B168"/>
<path d="M224.091 179.617C223.165 179.558 222.338 179.282 221.61 178.77C220.862 178.278 220.311 177.589 219.917 176.722C219.523 175.855 219.385 174.969 219.484 174.083C219.582 173.197 219.917 172.389 220.488 171.66C221.059 170.932 221.787 170.361 222.712 169.927C223.638 169.494 224.563 169.317 225.488 169.376C226.414 169.435 227.241 169.711 227.969 170.223C228.717 170.735 229.268 171.404 229.662 172.291C230.056 173.177 230.194 174.043 230.095 174.93C229.997 175.816 229.662 176.623 229.091 177.352C228.52 178.081 227.792 178.652 226.847 179.085C225.941 179.499 225.016 179.676 224.091 179.617ZM226.985 176.151C227.241 175.777 227.398 175.363 227.437 174.871C227.477 174.398 227.378 173.906 227.162 173.413C226.945 172.921 226.63 172.527 226.256 172.251C225.882 171.975 225.449 171.798 224.996 171.759C224.543 171.719 224.091 171.798 223.657 171.995C223.205 172.192 222.85 172.488 222.594 172.862C222.338 173.236 222.181 173.65 222.142 174.142C222.102 174.634 222.201 175.107 222.417 175.599C222.634 176.092 222.949 176.486 223.323 176.761C223.697 177.037 224.13 177.214 224.583 177.254C225.036 177.293 225.488 177.214 225.922 177.017C226.374 176.82 226.729 176.525 226.985 176.151Z" fill="#E1B168"/>
<path d="M245.314 167.091C244.408 167.288 243.542 167.229 242.695 166.953C241.849 166.677 241.12 166.165 240.51 165.437C239.9 164.708 239.526 163.9 239.388 163.014C239.25 162.128 239.349 161.261 239.703 160.414C240.038 159.567 240.609 158.799 241.396 158.149C242.184 157.499 243.01 157.066 243.916 156.869C244.822 156.672 245.688 156.712 246.534 157.007C247.381 157.303 248.109 157.795 248.72 158.524C249.33 159.252 249.704 160.06 249.842 160.946C249.98 161.832 249.881 162.699 249.527 163.546C249.192 164.393 248.621 165.161 247.834 165.811C247.066 166.48 246.219 166.894 245.314 167.091ZM247.164 162.975C247.322 162.541 247.342 162.088 247.263 161.635C247.164 161.163 246.948 160.729 246.594 160.316C246.239 159.902 245.845 159.607 245.412 159.43C244.979 159.252 244.526 159.213 244.074 159.292C243.621 159.37 243.207 159.567 242.833 159.883C242.459 160.198 242.203 160.572 242.046 161.005C241.888 161.438 241.869 161.891 241.947 162.344C242.046 162.817 242.262 163.25 242.617 163.664C242.971 164.078 243.365 164.373 243.798 164.55C244.251 164.727 244.684 164.767 245.137 164.688C245.589 164.609 246.003 164.412 246.377 164.097C246.751 163.782 247.027 163.408 247.164 162.975Z" fill="#E1B168"/>
<path d="M256.184 156.2C255.081 156.318 253.979 155.904 252.876 154.979L248.781 151.552L250.533 149.464L254.569 152.832C255.751 153.817 256.735 153.836 257.522 152.911C258.29 151.985 258.093 151.02 256.912 150.035L252.876 146.668L254.609 144.6L258.704 148.027C259.806 148.952 260.397 149.957 260.495 151.079C260.594 152.202 260.18 153.305 259.255 154.388C258.29 155.491 257.286 156.082 256.184 156.2Z" fill="#E1B168"/>
<path d="M265.651 140.405L264.903 141.685L267.108 142.985L265.73 145.348L257.402 140.484L259.627 136.663C260.06 135.914 260.572 135.323 261.143 134.91C261.714 134.496 262.324 134.28 262.974 134.24C263.604 134.201 264.254 134.378 264.864 134.733C265.474 135.087 265.907 135.54 266.203 136.072C266.478 136.623 266.596 137.214 266.557 137.903L270.219 137.667L268.742 140.188L265.651 140.405ZM262.364 136.998C262.009 137.116 261.694 137.431 261.399 137.903L260.631 139.223L263.072 140.641L263.84 139.322C264.116 138.829 264.234 138.416 264.155 138.041C264.096 137.667 263.86 137.372 263.466 137.155C263.072 136.938 262.718 136.879 262.364 136.998Z" fill="#E1B168"/>
<path d="M110.454 43.8599C110.572 44.8249 111.044 45.8687 111.911 46.9717C111.95 46.9913 111.93 47.0504 111.871 47.1292C111.812 47.208 111.753 47.2277 111.714 47.208C111.202 46.7353 110.533 46.1445 109.706 45.3961C108.879 44.6674 108.249 44.1356 107.816 43.8008C107.737 43.7417 107.737 43.6826 107.796 43.6038C107.855 43.5251 107.914 43.5054 107.993 43.5644C108.308 43.8008 108.761 43.5251 109.351 42.7176C110.316 41.5162 111.399 40.1178 112.639 38.4635C113.269 37.6166 113.919 36.7303 114.588 35.7653L115.651 34.2882C116.065 33.7564 116.321 33.3231 116.439 33.0277C116.557 32.7323 116.537 32.4566 116.38 32.2202C116.34 32.1611 116.34 32.1021 116.38 32.0233C116.439 31.9445 116.498 31.9445 116.537 31.9839C116.951 32.3581 117.581 32.9095 118.447 33.6186C119.313 34.3276 120.022 34.8987 120.573 35.3123C120.613 35.3517 120.613 35.3911 120.554 35.4699C120.494 35.5486 120.435 35.588 120.396 35.5683C119.195 34.8987 118.132 34.623 117.226 34.7609C116.321 34.8987 115.514 35.4108 114.844 36.3167C114.549 36.7106 114.352 37.0455 114.293 37.2818C114.214 37.5181 114.254 37.7545 114.372 37.9514C114.509 38.1484 114.765 38.3847 115.139 38.6801L124.983 46.0657C125.416 46.4005 125.771 46.5974 126.046 46.6565C126.302 46.7156 126.578 46.6565 126.834 46.4399C127.09 46.2429 127.444 45.849 127.858 45.2976C127.897 45.2582 127.956 45.2582 128.035 45.337C128.114 45.3961 128.153 45.4551 128.114 45.4945C127.739 45.9869 127.444 46.3808 127.208 46.6565L125.869 48.3897L124.649 50.0637C124.432 50.3789 124.137 50.7924 123.743 51.3242C123.723 51.3439 123.664 51.3439 123.585 51.2651C123.507 51.1863 123.467 51.147 123.487 51.1273C123.9 50.5758 124.176 50.1425 124.294 49.8077C124.412 49.4926 124.412 49.2169 124.274 48.9608C124.137 48.7048 123.861 48.4291 123.428 48.114L113.545 40.7087C113.171 40.433 112.875 40.2557 112.659 40.2163C112.442 40.1572 112.226 40.1966 112.009 40.3345C111.793 40.4724 111.556 40.7284 111.261 41.1026C110.611 41.9889 110.355 42.8948 110.454 43.8599Z" fill="#E1B168"/>
<path d="M145.124 29.3849C145.183 29.4637 145.203 29.5228 145.163 29.5622C144.71 29.9561 144.317 30.2712 144.021 30.4879L142.525 31.7286L140.812 33.2057C140.576 33.4224 140.261 33.7178 139.847 34.0526C139.808 34.092 139.749 34.0723 139.69 33.9738C139.631 33.8951 139.611 33.836 139.651 33.7966C140.162 33.3633 140.517 33.0088 140.694 32.7528C140.871 32.4967 140.911 32.221 140.832 31.965C140.753 31.7089 140.537 31.3741 140.182 30.9408L136.205 26.2338L129.216 32.1422L133.193 36.8493C133.528 37.2629 133.843 37.5189 134.079 37.6568C134.315 37.7749 134.591 37.7749 134.886 37.6568C135.182 37.5189 135.595 37.2432 136.107 36.8099C136.127 36.7902 136.186 36.8099 136.245 36.8887C136.323 36.9675 136.343 37.0265 136.304 37.0462C135.851 37.4401 135.477 37.7356 135.201 37.9325L133.488 39.3505L132.012 40.6307C131.776 40.867 131.402 41.1821 130.949 41.5564C130.929 41.576 130.87 41.5563 130.811 41.4776C130.752 41.3988 130.732 41.3397 130.752 41.32C131.244 40.9064 131.579 40.5716 131.736 40.2959C131.913 40.0398 131.953 39.7641 131.874 39.5081C131.795 39.2324 131.579 38.8975 131.224 38.5036L123.251 29.0698C122.897 28.6562 122.601 28.4002 122.365 28.282C122.129 28.1639 121.853 28.1639 121.558 28.282C121.263 28.4002 120.888 28.6562 120.396 29.0698C120.377 29.0895 120.318 29.0698 120.258 28.991C120.18 28.9123 120.16 28.8532 120.199 28.8335L121.302 27.9472C121.952 27.4548 122.444 27.0413 122.798 26.7458C123.271 26.3519 123.822 25.8596 124.452 25.2687L125.515 24.3431C125.535 24.3234 125.594 24.3431 125.653 24.4218C125.712 24.5006 125.732 24.5597 125.712 24.5794C125.2 25.0127 124.865 25.3672 124.708 25.6429C124.531 25.9187 124.491 26.1944 124.57 26.4701C124.649 26.7458 124.865 27.0806 125.2 27.4942L128.724 31.6498L135.713 25.7414L132.189 21.5858C131.854 21.1722 131.539 20.9162 131.303 20.7783C131.047 20.6601 130.772 20.6404 130.476 20.7586C130.181 20.8768 129.768 21.1525 129.256 21.5858C129.216 21.6252 129.157 21.6055 129.098 21.507C129.019 21.4282 129.019 21.3691 129.059 21.3298L130.043 20.5223C130.713 19.9905 131.303 19.5178 131.815 19.1042C132.189 18.7891 132.662 18.3558 133.272 17.8044L134.374 16.8393C134.414 16.7999 134.473 16.8196 134.532 16.9181C134.611 16.9969 134.611 17.056 134.571 17.0954C134.079 17.509 133.764 17.8438 133.587 18.1195C133.429 18.3755 133.39 18.6513 133.469 18.9073C133.547 19.1633 133.764 19.4981 134.099 19.9117L142.072 29.3456C142.407 29.7591 142.722 30.0152 142.958 30.153C143.214 30.2909 143.47 30.2909 143.746 30.153C144.021 30.0349 144.415 29.7591 144.907 29.3456C145.006 29.2865 145.065 29.3062 145.124 29.3849Z" fill="#E1B168"/>
<path d="M154.909 19.7938C154.949 19.7741 155.008 19.7544 155.067 19.7544C155.126 19.7544 155.145 19.7741 155.165 19.7741C155.657 21.0542 156.149 22.1768 156.681 23.1813C156.74 23.2994 156.779 23.4176 156.76 23.4964C156.74 23.5752 156.661 23.6539 156.524 23.7327L146.306 29.2079C146.266 29.2276 146.207 29.2079 146.168 29.1094C146.109 29.0109 146.109 28.9518 146.168 28.9322C146.699 28.6367 147.074 28.4004 147.27 28.1838C147.467 27.9671 147.546 27.7308 147.526 27.455C147.507 27.1793 147.349 26.8051 147.093 26.3324L141.266 15.4412C141.01 14.9685 140.793 14.6534 140.577 14.4761C140.38 14.2989 140.124 14.2398 139.829 14.2792C139.533 14.3383 139.12 14.4958 138.608 14.7716C138.569 14.7913 138.509 14.7716 138.47 14.6731C138.411 14.5746 138.411 14.5155 138.47 14.4958L148.255 9.25701C148.412 9.17824 148.53 9.19793 148.609 9.33579L150.302 12.3688C150.322 12.4082 150.283 12.4476 150.204 12.5067C150.125 12.5657 150.066 12.5854 150.027 12.5461C148.688 10.9508 147.133 10.6553 145.321 11.6204L144.376 12.1325C143.805 12.4279 143.471 12.743 143.333 13.0778C143.215 13.4126 143.274 13.8262 143.53 14.2989L146.109 19.1044L148.373 17.8834C150.105 16.9577 150.657 15.9139 150.027 14.7519C150.007 14.7125 150.027 14.6534 150.125 14.614C150.224 14.5746 150.263 14.5746 150.283 14.614L151.365 16.682L151.976 17.7849C152.271 18.2772 152.507 18.6711 152.684 18.9863C152.704 19.0257 152.665 19.065 152.566 19.1044C152.468 19.1635 152.409 19.1635 152.409 19.1438C151.68 17.7849 150.44 17.5879 148.688 18.5333L146.384 19.6953L149.239 25.0326C149.515 25.5446 149.81 25.8598 150.105 25.9582C150.42 26.0567 150.814 25.9779 151.306 25.7022L152.468 25.0917C154.574 23.9691 155.362 22.2359 154.83 19.8922C154.811 19.8528 154.85 19.8331 154.909 19.7938Z" fill="#E1B168"/>
<path d="M162.407 5.45475C161.876 6.26224 161.581 7.36515 161.521 8.76348C161.521 8.80287 161.482 8.82257 161.384 8.84226C161.285 8.86196 161.226 8.84226 161.226 8.80287C161.147 8.11355 161.01 7.22729 160.852 6.14407C160.695 5.06085 160.557 4.25337 160.419 3.70191C160.399 3.62313 160.439 3.56405 160.537 3.54435C160.636 3.52466 160.695 3.54435 160.714 3.64283C160.813 4.01703 161.325 4.09581 162.309 3.87916C163.805 3.58374 165.557 3.20954 167.546 2.73686C168.57 2.50052 169.652 2.2248 170.794 1.92937L172.546 1.49609C173.216 1.33853 173.688 1.18097 173.964 1.02341C174.24 0.865854 174.397 0.649211 174.436 0.373483C174.436 0.294704 174.476 0.255314 174.574 0.235619C174.653 0.215924 174.712 0.235619 174.732 0.314398C174.811 0.865854 174.948 1.69304 175.145 2.79595C175.342 3.89886 175.519 4.78513 175.677 5.47444C175.696 5.53353 175.657 5.57292 175.559 5.59261C175.46 5.61231 175.401 5.59261 175.362 5.55322C174.87 4.25337 174.24 3.3671 173.452 2.89442C172.665 2.40205 171.72 2.30358 170.637 2.53991C170.145 2.65808 169.81 2.77625 169.593 2.91412C169.377 3.05198 169.259 3.24893 169.239 3.48527C169.219 3.7216 169.259 4.07611 169.357 4.54879L172.133 16.5429C172.251 17.0747 172.409 17.4489 172.566 17.6852C172.724 17.9019 172.98 18.0201 173.295 18.0397C173.629 18.0594 174.141 17.9807 174.811 17.8231C174.87 17.8034 174.889 17.8625 174.929 17.961C174.948 18.0594 174.929 18.1185 174.889 18.1382C174.279 18.2761 173.806 18.3746 173.452 18.4533L171.306 18.926L169.278 19.4184C168.924 19.5169 168.412 19.6547 167.782 19.7926C167.743 19.7926 167.723 19.7532 167.703 19.6547C167.684 19.5562 167.684 19.4972 167.723 19.4972C168.392 19.3396 168.885 19.182 169.18 19.0245C169.475 18.8669 169.652 18.6503 169.711 18.3746C169.771 18.0988 169.731 17.7049 169.613 17.1732L166.817 5.13963C166.719 4.68665 166.601 4.37153 166.463 4.17459C166.325 3.97764 166.128 3.87916 165.892 3.83977C165.656 3.80038 165.282 3.83977 164.829 3.95794C163.746 4.1155 162.959 4.64726 162.407 5.45475Z" fill="#E1B168"/>
<path d="M196.075 16.4255C196.075 16.524 196.036 16.583 195.937 16.583C195.603 16.6027 195.052 16.6027 194.303 16.583C193.555 16.5634 193.004 16.583 192.669 16.583C192.217 16.6027 191.705 16.6421 191.094 16.6815C190.484 16.7406 190.031 16.78 189.677 16.78C189.598 16.78 189.559 16.7209 189.559 16.6224C189.559 16.524 189.598 16.4649 189.657 16.4649C190.169 16.4452 190.543 16.3664 190.779 16.2482C191.016 16.1301 191.134 15.9331 191.114 15.6574C191.094 15.3817 190.937 14.9484 190.622 14.3181L187.531 8.56725L182.708 8.72481L180.817 13.4122C180.601 13.9439 180.503 14.4363 180.522 14.8696C180.542 15.4998 180.778 15.9528 181.231 16.2679C181.684 16.5634 182.314 16.7209 183.121 16.6815C183.2 16.6815 183.259 16.7209 183.259 16.8391C183.259 16.9376 183.219 16.9966 183.141 16.9966C182.826 17.0163 182.353 17.0163 181.743 16.9966C181.073 16.9769 180.483 16.9966 179.971 16.9966C179.498 17.0163 178.928 17.0557 178.298 17.1148C177.727 17.1739 177.254 17.2133 176.88 17.2133C176.801 17.2133 176.742 17.1739 176.742 17.0557C176.742 16.9573 176.782 16.8982 176.88 16.8982C177.372 16.8785 177.786 16.7603 178.12 16.5634C178.455 16.3467 178.77 15.9922 179.065 15.4801C179.38 14.9681 179.715 14.2 180.128 13.1758L185.405 0.0590845C185.483 0.0393897 185.562 0 185.7 0C185.818 0 185.897 0.0196948 185.917 0.0787793L192.906 13.038C193.575 14.2984 194.126 15.165 194.559 15.618C194.992 16.071 195.445 16.2876 195.937 16.2679C196.016 16.2679 196.056 16.3073 196.075 16.4255ZM183.003 8.07488L187.216 7.93702L184.853 3.52537L183.003 8.07488Z" fill="#E1B168"/>
<path d="M201.883 5.63274C202.119 6.18419 202.454 6.67656 202.887 7.12954C203.301 7.58252 203.891 8.11428 204.639 8.76421C205.446 9.47323 206.076 10.0641 206.529 10.5564C206.982 11.0488 207.336 11.62 207.612 12.2699C207.868 12.9198 207.947 13.6288 207.809 14.4166C207.671 15.3226 207.297 16.071 206.726 16.7012C206.155 17.3315 205.407 17.7648 204.482 18.0208C203.556 18.2768 202.552 18.3162 201.47 18.139C200.722 18.0208 199.993 17.8041 199.245 17.489C198.497 17.1739 197.946 16.8391 197.571 16.4846C197.434 16.3467 197.375 16.1695 197.394 15.9331L197.887 11.8957V11.876C197.906 11.7972 197.946 11.7775 198.044 11.7775C198.123 11.7775 198.182 11.8169 198.182 11.8957C198.517 13.4516 198.989 14.7514 199.599 15.7953C200.19 16.8391 201.076 17.4693 202.237 17.6466C202.986 17.7648 203.655 17.6663 204.226 17.3315C204.797 16.9967 205.171 16.3467 205.328 15.3817C205.446 14.6136 205.387 13.9046 205.151 13.2743C204.915 12.6441 204.561 12.0926 204.127 11.62C203.694 11.1473 203.084 10.5761 202.316 9.86713C201.568 9.17781 200.977 8.62635 200.564 8.15367C200.151 7.681 199.816 7.16893 199.58 6.55839C199.343 5.94785 199.265 5.27823 199.383 4.52983C199.54 3.62386 199.914 2.89515 200.525 2.3437C201.135 1.79224 201.883 1.43774 202.749 1.26048C203.616 1.08323 204.501 1.06353 205.387 1.22109C205.978 1.31957 206.569 1.47713 207.14 1.67407C207.711 1.89072 208.203 2.10736 208.577 2.3437C208.734 2.42248 208.813 2.50126 208.852 2.59973C208.892 2.67851 208.911 2.79668 208.892 2.91485L208.4 6.519C208.4 6.57809 208.341 6.59778 208.242 6.61748C208.144 6.63717 208.085 6.59778 208.085 6.519C207.907 5.3964 207.592 4.35257 207.14 3.38753C206.687 2.42248 205.88 1.85133 204.698 1.65438C203.911 1.53621 203.241 1.65438 202.71 2.02858C202.178 2.40278 201.844 2.99363 201.706 3.78142C201.568 4.47074 201.647 5.06159 201.883 5.63274Z" fill="#E1B168"/>
<path d="M215.665 5.37705C214.779 5.77095 213.932 6.53905 213.125 7.68135C213.106 7.72074 213.066 7.72074 212.968 7.68135C212.869 7.64196 212.85 7.60257 212.85 7.56318C213.145 6.93294 213.519 6.12546 213.992 5.12102C214.464 4.11658 214.759 3.36818 214.956 2.83642C214.996 2.75764 215.055 2.71825 215.133 2.75764C215.232 2.79703 215.252 2.85611 215.232 2.93489C215.094 3.3091 215.507 3.6636 216.433 3.99841C217.85 4.56956 219.524 5.1998 221.453 5.88912C222.438 6.24363 223.501 6.59813 224.603 6.97233L226.316 7.56318C226.946 7.79952 227.438 7.91769 227.753 7.93738C228.068 7.95708 228.324 7.8586 228.501 7.64196C228.541 7.58287 228.6 7.56318 228.678 7.60257C228.757 7.64196 228.797 7.68135 228.777 7.74043C228.541 8.2328 228.206 9.0206 227.773 10.0447C227.34 11.0886 227.005 11.9354 226.769 12.5854C226.749 12.6444 226.69 12.6444 226.611 12.6051C226.513 12.5657 226.473 12.5263 226.473 12.4672C226.769 11.1082 226.71 10.025 226.316 9.19785C225.922 8.37067 225.194 7.76013 224.131 7.38593C223.658 7.20867 223.304 7.12989 223.048 7.12989C222.792 7.12989 222.595 7.22837 222.438 7.40562C222.28 7.58287 222.122 7.89799 221.965 8.35097L217.791 19.9315C217.614 20.4436 217.516 20.8375 217.535 21.1132C217.555 21.389 217.693 21.6056 217.968 21.8025C218.244 21.9995 218.697 22.2161 219.366 22.4525C219.425 22.4722 219.425 22.5313 219.386 22.6297C219.347 22.7282 219.307 22.7676 219.248 22.7479C218.658 22.5313 218.205 22.354 217.87 22.2161L215.823 21.448L213.854 20.7587C213.499 20.6405 213.007 20.483 212.377 20.2663C212.338 20.2467 212.338 20.1876 212.377 20.0891C212.417 19.9906 212.456 19.9512 212.476 19.9512C213.125 20.1876 213.617 20.3254 213.972 20.3451C214.307 20.3648 214.582 20.286 214.779 20.0891C214.976 19.8921 215.173 19.5376 215.35 19.0256L219.543 7.38593C219.701 6.95264 219.78 6.61783 219.76 6.38149C219.74 6.14515 219.642 5.9482 219.465 5.79064C219.268 5.63309 218.953 5.47553 218.5 5.29827C217.516 4.98316 216.551 4.98316 215.665 5.37705Z" fill="#E1B168"/>
<path d="M236.553 27.2182C236.592 27.2379 236.631 27.2773 236.651 27.3364C236.671 27.3954 236.69 27.4151 236.671 27.4348C235.824 28.518 235.115 29.5225 234.544 30.4875C234.466 30.6057 234.407 30.6845 234.328 30.7042C234.249 30.7239 234.151 30.7042 234.013 30.6254L224.031 24.7366C223.992 24.7169 223.992 24.6579 224.051 24.5594C224.11 24.4609 224.149 24.4412 224.209 24.4609C224.72 24.776 225.134 24.9533 225.409 25.0124C225.685 25.0714 225.941 25.0124 226.158 24.8548C226.374 24.6775 226.61 24.3624 226.886 23.9094L233.166 13.2545C233.442 12.8016 233.599 12.4274 233.639 12.1713C233.678 11.9153 233.599 11.6593 233.403 11.4229C233.206 11.1866 232.851 10.9306 232.359 10.6351C232.32 10.6154 232.32 10.5563 232.379 10.4579C232.438 10.3594 232.477 10.3397 232.536 10.3594L242.104 16.0118C242.262 16.1103 242.301 16.2088 242.203 16.3466L240.49 19.3599C240.47 19.3993 240.411 19.3796 240.333 19.3599C240.234 19.3206 240.195 19.2812 240.214 19.2221C240.884 17.2526 240.333 15.7558 238.561 14.712L237.635 14.1802C237.084 13.8454 236.631 13.7272 236.297 13.7863C235.942 13.8454 235.627 14.1211 235.352 14.5938L232.576 19.2812L234.781 20.581C236.474 21.5855 237.655 21.5067 238.305 20.3644C238.324 20.325 238.384 20.325 238.482 20.3644C238.561 20.4235 238.6 20.4629 238.561 20.5022L237.36 22.4914L236.749 23.5943C236.494 24.1064 236.277 24.52 236.1 24.8154C236.08 24.8548 236.021 24.8351 235.942 24.776C235.844 24.7169 235.804 24.6775 235.824 24.6579C236.592 23.3383 236.139 22.1763 234.426 21.1522L232.241 19.872L229.17 25.0911C228.874 25.6032 228.756 25.9971 228.835 26.3122C228.914 26.6273 229.189 26.9228 229.682 27.2182L230.804 27.8878C232.851 29.1089 234.741 28.8725 236.474 27.1985C236.454 27.1788 236.494 27.1985 236.553 27.2182Z" fill="#E1B168"/>
<path d="M249.467 43.6629C249.388 43.7417 249.329 43.7417 249.25 43.6826C248.994 43.4462 248.6 43.072 248.069 42.56C247.537 42.0282 247.144 41.654 246.888 41.4177C246.553 41.1223 246.159 40.7874 245.687 40.3935C245.214 40.0193 244.86 39.7042 244.604 39.4876C244.545 39.4482 244.564 39.3694 244.624 39.2906C244.702 39.2119 244.761 39.1922 244.82 39.2512C245.194 39.6057 245.529 39.8027 245.785 39.8815C246.041 39.9603 246.258 39.9012 246.435 39.7042C246.612 39.5073 246.809 39.074 247.006 38.3847L248.778 32.102L245.194 28.8524L240.568 30.9006C240.036 31.137 239.623 31.4127 239.347 31.7475C238.934 32.2005 238.776 32.7126 238.894 33.2443C239.013 33.7761 239.367 34.3078 239.958 34.8593C240.017 34.9184 240.017 34.9972 239.958 35.0759C239.879 35.1547 239.82 35.1547 239.761 35.0956C239.524 34.879 239.19 34.5639 238.757 34.1306C238.284 33.6579 237.851 33.2443 237.497 32.9095C237.142 32.5944 236.709 32.2202 236.217 31.8263C235.764 31.4718 235.41 31.1764 235.134 30.9203C235.075 30.8612 235.075 30.7825 235.134 30.7037C235.213 30.6249 235.272 30.6052 235.331 30.6643C235.705 30.9991 236.079 31.2157 236.453 31.2945C236.827 31.3733 237.319 31.3339 237.89 31.1764C238.461 31.0188 239.249 30.7037 240.253 30.2704L253.168 24.5392C253.227 24.5195 253.306 24.5589 253.404 24.6377C253.503 24.7165 253.522 24.7952 253.503 24.8346L249.506 39.0149C249.112 40.3935 248.915 41.3783 248.896 42.0085C248.896 42.6388 249.053 43.1114 249.427 43.4462C249.526 43.5053 249.526 43.5841 249.467 43.6629ZM245.884 28.5766L249.014 31.4127L250.372 26.6072L245.884 28.5766Z" fill="#E1B168"/>
<path d="M261.26 35.0963C260.295 34.9387 259.173 35.0963 257.874 35.6084C257.854 35.6281 257.795 35.6084 257.736 35.5296C257.677 35.4508 257.677 35.3917 257.716 35.372C258.307 35.0175 259.075 34.5449 260.02 33.954C260.945 33.3632 261.634 32.9102 262.067 32.5754C262.146 32.5163 262.205 32.536 262.264 32.6148C262.323 32.6935 262.323 32.7526 262.244 32.8117C261.929 33.048 262.067 33.5601 262.658 34.3676C263.524 35.6281 264.587 37.0855 265.808 38.7202C266.438 39.567 267.107 40.4533 267.855 41.3593L268.958 42.797C269.371 43.3484 269.686 43.703 269.942 43.8999C270.198 44.0968 270.454 44.1559 270.73 44.0575C270.789 44.0378 270.867 44.0575 270.907 44.1165C270.966 44.1953 270.946 44.2347 270.907 44.2938C270.434 44.5892 269.726 45.0422 268.8 45.6724C267.875 46.3027 267.127 46.8147 266.575 47.2283C266.536 47.2677 266.477 47.2283 266.418 47.1495C266.359 47.0708 266.339 47.0117 266.379 46.9723C267.363 46.0072 267.934 45.0619 268.052 44.1559C268.17 43.25 267.914 42.3243 267.225 41.438C266.93 41.0441 266.674 40.7684 266.457 40.6306C266.241 40.4927 266.024 40.4533 265.788 40.5321C265.552 40.6109 265.256 40.7684 264.863 41.0638L254.999 48.4297C254.566 48.7645 254.271 49.0402 254.133 49.2766C253.995 49.5129 253.995 49.7887 254.113 50.1038C254.231 50.4189 254.507 50.8522 254.92 51.4036C254.96 51.443 254.92 51.5021 254.842 51.5612C254.763 51.6203 254.704 51.64 254.665 51.6006C254.291 51.1082 254.015 50.6946 253.798 50.3992L252.519 48.6267L251.259 46.9723C251.022 46.6769 250.707 46.283 250.314 45.7512C250.294 45.7315 250.333 45.6724 250.412 45.6133C250.491 45.5543 250.55 45.5346 250.57 45.5543C250.983 46.1057 251.318 46.4996 251.593 46.6966C251.869 46.9132 252.125 46.992 252.4 46.9132C252.676 46.8541 253.03 46.6572 253.464 46.3421L263.366 38.9565C263.741 38.6808 263.977 38.4444 264.095 38.2475C264.213 38.0505 264.233 37.8339 264.174 37.5976C264.115 37.3612 263.937 37.0461 263.642 36.6522C263.012 35.7659 262.225 35.2539 261.26 35.0963Z" fill="#E1B168"/>
</svg>
